<svg width="210" height="65" viewBox="0 0 210 65" fill="none" xmlns="http://www.w3.org/2000/svg">
<circle cx="32.0099" cy="32.1705" r="16.005" fill="white" fill-opacity="0.4"/>
<circle cx="32.01" cy="32.1705" r="8.44708" fill="#898989" stroke="#0B0B0B" stroke-width="4.44583"/>
<g opacity="0.4">
<path d="M66.4921 40.422C72.1436 40.422 75.5545 37.036 75.5545 31.8326C75.5545 26.6292 72.1436 23.2433 66.4921 23.2433C60.965 23.2433 57.5293 26.6292 57.5293 31.8326C57.5293 37.036 60.965 40.422 66.4921 40.422ZM66.4921 36.8369C62.8323 36.8369 61.4879 35.5422 61.4879 31.8326C61.4879 28.123 62.8323 26.8284 66.4921 26.8284C70.1519 26.8284 71.571 28.123 71.571 31.8326C71.571 35.5422 70.1519 36.8369 66.4921 36.8369Z" fill="white"/>
<path d="M85.7226 40.422C90.926 40.422 94.2373 37.8327 94.2373 33.6003V33.2268H90.0795V33.6003C90.0795 35.7912 88.8347 36.8369 85.7973 36.8369C82.1375 36.8369 80.7682 35.5422 80.7682 31.8326C80.7682 28.123 82.1375 26.8284 85.7973 26.8284C88.8347 26.8284 90.0795 27.8741 90.0795 30.065V30.4384H94.2373V30.065C94.2373 25.8325 90.9011 23.2433 85.7226 23.2433C80.2205 23.2433 76.8096 26.6292 76.8096 31.8326C76.8096 37.036 80.2205 40.422 85.7226 40.422Z" fill="white"/>
<path d="M105.142 40.173V26.8533H111.341V23.4923H95.2083V26.8533H101.408V40.173H105.142Z" fill="white"/>
<path d="M121.27 40.422C126.921 40.422 130.332 37.036 130.332 31.8326C130.332 26.6292 126.921 23.2433 121.27 23.2433C115.743 23.2433 112.307 26.6292 112.307 31.8326C112.307 37.036 115.743 40.422 121.27 40.422ZM121.27 36.8369C117.61 36.8369 116.265 35.5422 116.265 31.8326C116.265 28.123 117.61 26.8284 121.27 26.8284C124.929 26.8284 126.349 28.123 126.349 31.8326C126.349 35.5422 124.929 36.8369 121.27 36.8369Z" fill="white"/>
<path d="M135.695 40.173V35.5671H140.674C144.533 35.5671 147.023 33.3513 147.023 29.5172C147.023 25.6832 144.533 23.4923 140.674 23.4923H131.961V40.173H135.695ZM140.276 26.8533C142.343 26.8533 143.313 27.4757 143.313 29.5172C143.313 31.6086 142.343 32.2061 140.276 32.2061H135.695V26.8533H140.276Z" fill="white"/>
<path d="M156.414 40.422C161.867 40.422 164.605 37.6834 164.605 33.202V23.4923H160.871V32.9281C160.871 35.7663 159.825 36.7871 156.414 36.7871C153.028 36.7871 151.958 35.7663 151.958 32.9281V23.4923H148.223V33.202C148.223 37.6834 150.987 40.422 156.414 40.422Z" fill="white"/>
<path d="M174.054 40.422C179.357 40.422 181.473 37.9821 181.473 35.2684C181.473 32.9779 180.129 31.1604 176.394 30.5629L171.714 29.816C170.319 29.567 169.772 29.2185 169.772 28.2475C169.772 27.177 170.593 26.6541 173.282 26.6541C176.593 26.6541 177.415 27.3263 177.415 28.9197V29.2683H181.174V29.1189C181.174 25.6085 178.784 23.2433 173.656 23.2433C168.054 23.2433 166.012 25.8823 166.012 28.3969C166.012 31.1106 167.78 32.6044 170.768 33.0775L175.448 33.7497C177.166 34.0484 177.739 34.4219 177.739 35.4427C177.739 36.563 177.041 37.0111 174.054 37.0111C170.668 37.0111 169.896 36.3887 169.896 34.8451V34.397H166.162V34.5464C166.162 38.4303 169 40.422 174.054 40.422Z" fill="white"/>
</g>
</svg>
