<svg width="210" height="65" viewBox="0 0 210 65" fill="none" xmlns="http://www.w3.org/2000/svg">
<g opacity="0.4">
<path d="M73.855 43.577V19.6969H83.6635C85.3089 19.6969 86.762 19.9854 88.0228 20.5624C89.3049 21.1393 90.3093 21.9941 91.0358 23.1267C91.7624 24.2592 92.1257 25.6589 92.1257 27.3257C92.1257 28.9498 91.7517 30.3281 91.0038 31.4607C90.2772 32.5932 89.2729 33.4587 87.9907 34.057C86.7299 34.634 85.2875 34.9225 83.6635 34.9225H78.8233V43.577H73.855ZM78.8233 30.5952H83.6955C84.7426 30.5952 85.576 30.296 86.1957 29.6977C86.8368 29.0994 87.1573 28.3087 87.1573 27.3257C87.1573 26.3214 86.8368 25.52 86.1957 24.9217C85.576 24.3233 84.7426 24.0242 83.6955 24.0242H78.8233V30.5952Z" fill="white"/>
<path d="M94.5385 43.577V26.0756H99.026V28.704C99.4748 27.6142 100.105 26.877 100.917 26.4923C101.751 26.0863 102.702 25.8833 103.77 25.8833H105.597V30.0503H103.289C102.114 30.0503 101.163 30.4136 100.436 31.1401C99.7098 31.8453 99.3465 32.8497 99.3465 34.1532V43.577H94.5385Z" fill="white"/>
<path d="M107.529 24.505V19.6969H112.337V24.505H107.529ZM107.529 43.577V26.0756H112.337V43.577H107.529Z" fill="white"/>
<path d="M123.941 43.7693C121.825 43.7693 120.18 43.2031 119.004 42.0705C117.85 40.9165 117.273 39.3139 117.273 37.2624V30.2426H114.26V26.0756H114.485C116.344 26.0756 117.273 25.1781 117.273 23.3831V20.8188H122.081V26.0756H126.184V30.2426H122.081V37.2624C122.081 39.0361 123.075 39.9229 125.062 39.9229C125.362 39.9229 125.736 39.8908 126.184 39.8267V43.6091C125.479 43.7159 124.731 43.7693 123.941 43.7693Z" fill="white"/>
<path d="M136.837 43.9617C135.106 43.9617 133.525 43.5663 132.093 42.7757C130.683 41.985 129.561 40.9059 128.728 39.5382C127.894 38.1492 127.478 36.5786 127.478 34.8263C127.478 33.0527 127.894 31.482 128.728 30.1144C129.561 28.7468 130.683 27.6676 132.093 26.877C133.525 26.0863 135.106 25.691 136.837 25.691C138.568 25.691 140.139 26.0863 141.549 26.877C142.981 27.6676 144.114 28.7468 144.947 30.1144C145.78 31.482 146.197 33.0527 146.197 34.8263C146.197 36.5786 145.78 38.1492 144.947 39.5382C144.114 40.9059 142.981 41.985 141.549 42.7757C140.139 43.5663 138.568 43.9617 136.837 43.9617ZM136.837 39.6344C138.162 39.6344 139.22 39.1856 140.011 38.2881C140.823 37.3906 141.229 36.2367 141.229 34.8263C141.229 33.4373 140.823 32.2941 140.011 31.3966C139.22 30.4777 138.162 30.0182 136.837 30.0182C135.534 30.0182 134.476 30.4777 133.664 31.3966C132.852 32.2941 132.446 33.4373 132.446 34.8263C132.446 36.2367 132.852 37.3906 133.664 38.2881C134.476 39.1856 135.534 39.6344 136.837 39.6344Z" fill="white"/>
<path d="M148.442 43.577V26.0756H152.929V28.1912C153.356 27.3578 153.955 26.7381 154.724 26.332C155.515 25.9047 156.444 25.691 157.513 25.691C158.645 25.691 159.66 25.926 160.558 26.3962C161.455 26.8449 162.182 27.5074 162.738 28.3835C163.229 27.5715 163.945 26.9197 164.885 26.4282C165.825 25.9367 166.883 25.691 168.058 25.691C169.277 25.691 170.356 25.9688 171.296 26.5244C172.236 27.0586 172.963 27.8279 173.476 28.8322C174.01 29.8152 174.277 30.9799 174.277 32.3261V43.577H169.469V33.3518C169.469 32.2834 169.202 31.4607 168.667 30.8837C168.155 30.3067 167.471 30.0182 166.616 30.0182C165.761 30.0182 165.067 30.3067 164.533 30.8837C164.02 31.4607 163.763 32.2834 163.763 33.3518V43.577H158.955V33.3518C158.955 32.2834 158.688 31.4607 158.154 30.8837C157.641 30.3067 156.957 30.0182 156.102 30.0182C155.248 30.0182 154.553 30.3067 154.019 30.8837C153.506 31.4607 153.25 32.2834 153.25 33.3518V43.577H148.442Z" fill="white"/>
<path d="M29.8 31.9053C29.8 35.1643 30.7664 38.35 32.5769 41.0597C34.3875 43.7694 36.9609 45.8814 39.9718 47.1285C42.9827 48.3757 46.2957 48.702 49.4921 48.0662C52.6884 47.4304 55.6244 45.8611 57.9288 43.5567C60.2332 41.2522 61.8025 38.3162 62.4383 35.1199C63.0741 31.9236 62.7478 28.6105 61.5007 25.5997C60.2535 22.5888 58.1416 20.0154 55.4319 18.2048C52.7221 16.3942 49.5364 15.4279 46.2775 15.4279L46.2775 31.9053L29.8 31.9053Z" fill="url(#paint0_angular_85_176)"/>
</g>
<defs>
<radialGradient id="paint0_angular_85_176" cx="0" cy="0" r="1" gradientUnits="userSpaceOnUse" gradientTransform="translate(46.2775 31.9053) rotate(-90) scale(16.4775)">
<stop stop-color="white"/>
<stop offset="1" stop-color="white" stop-opacity="0"/>
</radialGradient>
</defs>
</svg>
