<svg width="210" height="65" viewBox="0 0 210 65" fill="none" xmlns="http://www.w3.org/2000/svg">
<path d="M62.9009 29.8242L56.5989 42.5615H53.498L47.2294 29.8242V44.4955H38.7934V43.0617H42.0277V21.1882H49.0633L55.0651 33.9922L61.1004 21.1882H68.1025V43.0617H71.3369V44.4955H62.9009V29.8242ZM99.2156 43.0617V44.4955H90.4462L88.2789 39.4606H78.5092L76.3418 44.4955H67.5724V43.0617H71.407L80.8766 21.1882H85.9115L95.3478 43.0617H99.2156ZM83.4107 28.1237L80.4765 34.8925H86.3116L83.4107 28.1237ZM116.425 43.0617V44.4955H95.8185V43.0617H103.521V35.2926L95.4517 21.1882H101.087L106.122 29.8576L111.157 21.1882H116.792L108.723 35.2926V43.0617H116.425ZM144.673 43.0617V44.4955H135.903L133.736 39.4606H123.966L121.799 44.4955H113.029V43.0617H116.864L126.333 21.1882H131.368L140.805 43.0617H144.673ZM128.868 28.1237L125.933 34.8925H131.769L128.868 28.1237ZM164.816 43.0617V44.4955H140.909V43.0617H144.143V21.1882H153.212C154.791 21.1882 156.147 21.3771 157.28 21.755C158.436 22.1329 159.303 22.6442 159.881 23.2889C160.926 24.4892 161.448 25.8452 161.448 27.3568C161.448 29.1796 160.859 30.5356 159.681 31.4247C159.281 31.7359 159.003 31.936 158.848 32.0249C158.692 32.0916 158.414 32.2139 158.014 32.3917C159.459 32.7029 160.604 33.3587 161.448 34.359C162.315 35.3371 162.749 36.5597 162.749 38.0268C162.749 40.2275 161.882 41.9058 160.148 43.0617H164.816ZM149.345 40.0941H152.912C154.402 40.0941 155.513 39.9163 156.247 39.5606C157.003 39.1827 157.38 38.4603 157.38 37.3933C157.38 36.304 156.98 35.5927 156.18 35.2593C155.402 34.9036 154.146 34.7258 152.412 34.7258H149.345V40.0941ZM149.345 30.6245H151.812C153.257 30.6245 154.324 30.4689 155.013 30.1577C155.724 29.8465 156.08 29.1796 156.08 28.157C156.08 27.1123 155.758 26.4232 155.113 26.0897C154.468 25.7563 153.379 25.5896 151.845 25.5896H149.345V30.6245ZM175.755 43.0617V44.4955H164.818V43.0617H167.685V21.1882H172.887V43.0617H175.755Z" fill="white" fill-opacity="0.4"/>
</svg>
