<svg width="210" height="65" viewBox="0 0 210 65" fill="none" xmlns="http://www.w3.org/2000/svg">
<g opacity="0.4">
<path d="M50.7075 43.3857C52.754 43.3857 54.5204 42.9716 56.0065 42.1432C57.517 41.3149 58.6865 40.1454 59.5148 38.6349C60.3432 37.1 60.7573 35.2972 60.7573 33.2263V16.2695H55.0929V26.2462H54.9833C54.4229 25.4666 53.6676 24.8575 52.7175 24.419C51.7917 23.9805 50.7684 23.7612 49.6477 23.7612C47.8936 23.7612 46.3343 24.1632 44.97 24.9672C43.63 25.7712 42.5702 26.8919 41.7906 28.3293C41.0353 29.7424 40.6577 31.3869 40.6577 33.2628C40.6577 35.2119 41.0597 36.9539 41.8637 38.4887C42.6677 40.0236 43.8127 41.2296 45.2989 42.1067C46.8094 42.9594 48.6123 43.3857 50.7075 43.3857ZM50.7075 38.4887C49.4163 38.4887 48.3808 38.0258 47.6012 37.1C46.8216 36.1499 46.4318 34.9804 46.4318 33.5917C46.4318 32.2274 46.8216 31.0823 47.6012 30.1565C48.3808 29.2064 49.4163 28.7313 50.7075 28.7313C52.0231 28.7313 53.0586 29.2064 53.8138 30.1565C54.5934 31.0823 54.9833 32.2274 54.9833 33.5917C54.9833 34.9804 54.5934 36.1499 53.8138 37.1C53.0586 38.0258 52.0231 38.4887 50.7075 38.4887Z" fill="white"/>
<path d="M74.1947 43.3857C72.27 43.3857 70.6011 43.0203 69.188 42.2894C67.7993 41.5341 66.7273 40.5231 65.9721 39.2562C65.2168 37.9649 64.8392 36.5397 64.8392 34.9804V24.1997H70.5036V34.8343C70.5036 35.8088 70.8447 36.6615 71.5269 37.3924C72.2334 38.0989 73.1105 38.4522 74.1581 38.4522C75.1814 38.4522 76.0341 38.0989 76.7162 37.3924C77.4228 36.6615 77.776 35.8088 77.776 34.8343V24.1997H83.4405V34.9804C83.4405 36.5397 83.075 37.9649 82.3441 39.2562C81.6132 40.5231 80.5534 41.5341 79.1647 42.2894C77.776 43.0203 76.1194 43.3857 74.1947 43.3857Z" fill="white"/>
<path d="M87.6797 42.9472V16.2695H93.3441V42.9472H87.6797Z" fill="white"/>
<path d="M105.058 43.3857C103.377 43.3857 101.903 42.9594 100.636 42.1067C99.3934 41.254 98.4189 40.1089 97.7123 38.6715C97.0058 37.2097 96.6525 35.5652 96.6525 33.7379C96.6525 31.8376 97.0545 30.1444 97.8585 28.6582C98.6869 27.1477 99.8563 25.9539 101.367 25.0768C102.902 24.1997 104.717 23.7612 106.812 23.7612C108.907 23.7612 110.686 24.1997 112.148 25.0768C113.634 25.9539 114.767 27.1355 115.546 28.6217C116.35 30.1078 116.752 31.7767 116.752 33.6283V42.9472H111.197V39.9505H111.051C110.515 40.9251 109.772 41.7412 108.822 42.399C107.872 43.0568 106.617 43.3857 105.058 43.3857ZM106.739 38.4887C108.03 38.4887 109.053 38.0258 109.809 37.1C110.588 36.1499 110.978 34.9683 110.978 33.5552C110.978 32.2152 110.588 31.0823 109.809 30.1565C109.053 29.2064 108.03 28.7313 106.739 28.7313C105.399 28.7313 104.339 29.2064 103.56 30.1565C102.804 31.0823 102.427 32.2152 102.427 33.5552C102.427 34.9439 102.804 36.1133 103.56 37.0635C104.339 38.0137 105.399 38.4887 106.739 38.4887Z" fill="white"/>
<path d="M120.941 42.9472V16.2695H126.606V42.9472H120.941Z" fill="white"/>
<path d="M130.791 42.9472V24.1997H136.492V42.9472H130.791ZM133.642 22.0801C132.74 22.0801 131.96 21.7512 131.303 21.0934C130.645 20.4356 130.316 19.656 130.316 18.7546C130.316 17.8288 130.645 17.037 131.303 16.3792C131.96 15.7214 132.74 15.3925 133.642 15.3925C134.567 15.3925 135.347 15.7214 135.98 16.3792C136.638 17.037 136.967 17.8288 136.967 18.7546C136.967 19.656 136.638 20.4356 135.98 21.0934C135.347 21.7512 134.567 22.0801 133.642 22.0801Z" fill="white"/>
<path d="M139.252 42.9472L144.953 34.7612C143.467 34.0059 142.334 33.007 141.555 31.7645C140.775 30.4976 140.385 29.0724 140.385 27.4888V24.1997H146.05V27.1964C146.05 28.0735 146.293 28.8409 146.781 29.4987C147.292 30.1322 147.926 30.5585 148.681 30.7778L152.993 24.1997H159.388L153.98 32.0569C155.637 32.739 156.903 33.7501 157.78 35.0901C158.682 36.43 159.133 37.9406 159.133 39.6216V42.9472H153.432V39.8043C153.432 38.8298 153.103 38.0015 152.445 37.3193C151.787 36.6128 151.008 36.2108 150.106 36.1133L145.611 42.9472H139.252Z" fill="white"/>
</g>
</svg>
