<svg width="210" height="65" viewBox="0 0 210 65" fill="none" xmlns="http://www.w3.org/2000/svg">
<path d="M72.9149 19.6725C74.6962 19.6725 76.2427 19.9661 77.5542 20.5534C78.8853 21.1406 79.9032 21.9824 80.6079 23.0786C81.3126 24.1748 81.665 25.4765 81.665 26.9838C81.665 28.4715 81.3126 29.7733 80.6079 30.8891C79.9032 31.9853 78.8853 32.827 77.5542 33.4143C76.2427 34.0015 74.6962 34.2952 72.9149 34.2952H68.2755V40.2265H64.4584V19.6725H72.9149ZM72.7387 31.0653C74.4026 31.0653 75.6652 30.7129 76.5265 30.0082C77.3878 29.3035 77.8185 28.2954 77.8185 26.9838C77.8185 25.6723 77.3878 24.6642 76.5265 23.9595C75.6652 23.2548 74.4026 22.9024 72.7387 22.9024H68.2755V31.0653H72.7387Z" fill="white" fill-opacity="0.4"/>
<path d="M91.3802 40.432C89.7946 40.432 88.3656 40.0894 87.0932 39.4043C85.8208 38.7192 84.8225 37.7698 84.0982 36.5561C83.3935 35.3229 83.0411 33.933 83.0411 32.3866C83.0411 30.8402 83.3935 29.4601 84.0982 28.2464C84.8225 27.0328 85.8208 26.0834 87.0932 25.3982C88.3656 24.7131 89.7946 24.3705 91.3802 24.3705C92.9854 24.3705 94.4241 24.7131 95.6965 25.3982C96.9689 26.0834 97.9575 27.0328 98.6622 28.2464C99.3865 29.4601 99.7486 30.8402 99.7486 32.3866C99.7486 33.933 99.3865 35.3229 98.6622 36.5561C97.9575 37.7698 96.9689 38.7192 95.6965 39.4043C94.4241 40.0894 92.9854 40.432 91.3802 40.432ZM91.3802 37.2902C92.7309 37.2902 93.8467 36.84 94.7276 35.9395C95.6084 35.039 96.0489 33.8547 96.0489 32.3866C96.0489 30.9185 95.6084 29.7341 94.7276 28.8337C93.8467 27.9332 92.7309 27.483 91.3802 27.483C90.0295 27.483 88.9137 27.9332 88.0328 28.8337C87.1715 29.7341 86.7409 30.9185 86.7409 32.3866C86.7409 33.8547 87.1715 35.039 88.0328 35.9395C88.9137 36.84 90.0295 37.2902 91.3802 37.2902Z" fill="white" fill-opacity="0.4"/>
<path d="M111.216 24.3705C112.743 24.3705 114.103 24.7033 115.297 25.3689C116.511 26.0344 117.46 26.974 118.145 28.1877C118.83 29.4014 119.173 30.801 119.173 32.3866C119.173 33.9722 118.83 35.3816 118.145 36.6148C117.46 37.8285 116.511 38.7681 115.297 39.4337C114.103 40.0992 112.743 40.432 111.216 40.432C109.102 40.432 107.428 39.7273 106.195 38.3179V45.9229H102.524V24.5467H106.018V26.6021C106.625 25.8583 107.369 25.3004 108.25 24.9284C109.151 24.5565 110.139 24.3705 111.216 24.3705ZM110.805 37.2902C112.155 37.2902 113.261 36.84 114.123 35.9395C115.004 35.039 115.444 33.8547 115.444 32.3866C115.444 30.9185 115.004 29.7341 114.123 28.8337C113.261 27.9332 112.155 27.483 110.805 27.483C109.924 27.483 109.131 27.6885 108.426 28.0996C107.722 28.4911 107.164 29.0588 106.753 29.8027C106.341 30.5465 106.136 31.4078 106.136 32.3866C106.136 33.3654 106.341 34.2267 106.753 34.9705C107.164 35.7144 107.722 36.2919 108.426 36.7029C109.131 37.0944 109.924 37.2902 110.805 37.2902Z" fill="white" fill-opacity="0.4"/>
<path d="M130.611 24.3705C132.138 24.3705 133.499 24.7033 134.693 25.3689C135.906 26.0344 136.856 26.974 137.541 28.1877C138.226 29.4014 138.569 30.801 138.569 32.3866C138.569 33.9722 138.226 35.3816 137.541 36.6148C136.856 37.8285 135.906 38.7681 134.693 39.4337C133.499 40.0992 132.138 40.432 130.611 40.432C128.497 40.432 126.823 39.7273 125.59 38.3179V45.9229H121.92V24.5467H125.414V26.6021C126.021 25.8583 126.765 25.3004 127.646 24.9284C128.546 24.5565 129.535 24.3705 130.611 24.3705ZM130.2 37.2902C131.551 37.2902 132.657 36.84 133.518 35.9395C134.399 35.039 134.839 33.8547 134.839 32.3866C134.839 30.9185 134.399 29.7341 133.518 28.8337C132.657 27.9332 131.551 27.483 130.2 27.483C129.319 27.483 128.526 27.6885 127.822 28.0996C127.117 28.4911 126.559 29.0588 126.148 29.8027C125.737 30.5465 125.531 31.4078 125.531 32.3866C125.531 33.3654 125.737 34.2267 126.148 34.9705C126.559 35.7144 127.117 36.2919 127.822 36.7029C128.526 37.0944 129.319 37.2902 130.2 37.2902Z" fill="white" fill-opacity="0.4"/>
<path d="M148.774 37.3195C150.477 37.3195 151.896 36.7519 153.031 35.6165L154.969 37.8774C154.284 38.7192 153.403 39.3554 152.326 39.786C151.25 40.2167 150.036 40.432 148.685 40.432C146.963 40.432 145.446 40.0894 144.134 39.4043C142.823 38.7192 141.805 37.7698 141.08 36.5561C140.376 35.3229 140.023 33.933 140.023 32.3866C140.023 30.8597 140.366 29.4895 141.051 28.2758C141.756 27.0426 142.715 26.0834 143.929 25.3982C145.162 24.7131 146.552 24.3705 148.098 24.3705C149.566 24.3705 150.897 24.6935 152.092 25.3395C153.305 25.9659 154.264 26.8762 154.969 28.0703C155.674 29.2448 156.026 30.6248 156.026 32.2104L144.017 34.5594C144.389 35.4599 144.986 36.145 145.808 36.6148C146.63 37.0846 147.619 37.3195 148.774 37.3195ZM148.098 27.3068C146.747 27.3068 145.651 27.7473 144.81 28.6282C143.987 29.509 143.576 30.6933 143.576 32.1811V32.2104L152.444 30.5074C152.189 29.5482 151.671 28.775 150.888 28.1877C150.124 27.6005 149.194 27.3068 148.098 27.3068Z" fill="white" fill-opacity="0.4"/>
<path d="M162.313 26.837C163.37 25.1927 165.229 24.3705 167.891 24.3705V27.8647C167.578 27.806 167.294 27.7766 167.04 27.7766C165.611 27.7766 164.495 28.1975 163.693 29.0392C162.89 29.8614 162.489 31.0555 162.489 32.6215V40.2265H158.818V24.5467H162.313V26.837Z" fill="white" fill-opacity="0.4"/>
<path d="M175.173 40.432C173.901 40.432 172.658 40.2656 171.444 39.9328C170.23 39.6001 169.262 39.1792 168.537 38.6702L169.947 35.8808C170.651 36.3506 171.493 36.7323 172.472 37.0259C173.47 37.3 174.449 37.437 175.408 37.437C177.601 37.437 178.697 36.8595 178.697 35.7046C178.697 35.1565 178.413 34.7748 177.845 34.5594C177.297 34.3441 176.406 34.1386 175.173 33.9428C173.881 33.7471 172.824 33.522 172.002 33.2675C171.199 33.013 170.495 32.5726 169.888 31.9462C169.301 31.3002 169.007 30.4095 169.007 29.2741C169.007 27.7864 169.624 26.6021 170.857 25.7212C172.11 24.8208 173.793 24.3705 175.907 24.3705C176.984 24.3705 178.061 24.4978 179.137 24.7523C180.214 24.9872 181.095 25.3101 181.78 25.7212L180.37 28.5107C179.039 27.7277 177.542 27.3362 175.878 27.3362C174.801 27.3362 173.979 27.5026 173.411 27.8354C172.863 28.1486 172.589 28.5694 172.589 29.098C172.589 29.6852 172.883 30.1061 173.47 30.3606C174.077 30.5955 175.007 30.8206 176.26 31.0359C177.512 31.2317 178.54 31.4568 179.343 31.7112C180.145 31.9657 180.83 32.3964 181.398 33.0032C181.985 33.61 182.279 34.4714 182.279 35.5871C182.279 37.0553 181.643 38.2298 180.37 39.1107C179.098 39.9916 177.366 40.432 175.173 40.432Z" fill="white" fill-opacity="0.4"/>
<path d="M40.5567 14.3872C36.4033 14.3872 32.4201 16.0371 29.4832 18.9739C26.5464 21.9108 24.8965 25.894 24.8965 30.0473C24.8965 34.2007 26.5464 38.1839 29.4832 41.1208C32.4201 44.0576 36.4033 45.7075 40.5567 45.7075L40.5567 30.0473L40.5567 14.3872Z" fill="white" fill-opacity="0.4"/>
<path d="M53.0848 19.8683C50.3851 19.8683 47.796 20.9408 45.887 22.8497C43.9781 24.7587 42.9056 27.3478 42.9056 30.0474C42.9056 32.7471 43.9781 35.3362 45.887 37.2452C47.796 39.1541 50.3851 40.2266 53.0848 40.2266L53.0848 30.0474L53.0848 19.8683Z" fill="white" fill-opacity="0.4"/>
</svg>
